<svg width="308" height="25" fill="none" xmlns="http://www.w3.org/2000/svg"><g clip-path="url(#clip0_1931_10333)" fill="#fff"><path d="M125.104 0h-.978v23.028h.978V0zM15.652 11.614c0 3.805-2.151 7.91-7.825 7.91-4.108 0-7.825-2.303-7.825-7.91-.097-4.606 2.74-8.11 8.314-7.81 5.967.3 7.336 5.007 7.336 7.81zM4.991 8.711c-.49.8-.685 1.802-.685 2.803 0 2.303 1.076 4.405 3.521 4.405 2.348 0 3.522-1.902 3.522-4.205 0-1.602-.392-2.903-1.174-3.704a3.065 3.065 0 00-2.543-.801c-1.37.1-2.054.6-2.641 1.502zM53.799 5.51c.391-.5.684-.8 1.467-1.201.685-.3 1.663-.5 2.64-.5.881 0 1.86.1 2.642.6 1.565.8 1.956 2.203 1.956 4.505v10.213H58.2v-8.41c0-1.302 0-1.803-.195-2.203-.294-.801-1.076-1.101-1.957-1.101-2.25 0-2.25 1.902-2.25 3.704v8.11h-4.303V4.108H53.8V5.51zM47.441 15.221c-.39.901-1.663 4.205-7.238 4.205-4.303 0-7.434-2.703-7.434-7.61 0-3.603 1.761-8.109 7.532-8.109.88 0 3.423-.1 5.282 2.003 1.858 2.102 2.054 5.006 2.054 6.708H37.17c0 1.902.978 3.704 3.326 3.704 2.347 0 3.13-1.602 3.717-2.603l3.227 1.702zm-4.303-5.507c-.098-.6-.196-1.501-.783-2.102-.489-.6-1.37-.901-2.054-.901-1.076 0-1.76.5-2.152 1-.587.702-.684 1.303-.88 2.003h5.869zM107.4 7.207h2.836V4.103h-2.739V1h-4.303v3.103h-.685l-1.956 3.104h2.641v7.109c0 1.401 0 2.503.587 3.404.88 1.402 2.543 1.502 4.01 1.502.782 0 1.369-.1 2.249-.2v-3.405l-1.565.1c-1.173 0-1.173-.8-1.075-1.702V7.207zM64.656 1h4.304v3.103h4.5l-1.957 3.104H68.96v6.608c0 .901 0 1.702 1.076 1.702l1.565-.1v3.404c-.88.1-1.467.2-2.25.2-1.467 0-3.13-.1-4.01-1.501-.587-.901-.587-1.903-.587-3.404L64.656 1zM114.246 7.217h-.489V4.614h-.978v-.501h2.446v.5h-.979v2.604zm4.206 0h-.489V4.714l-.097.5-.587 2.003h-.489l-.587-2.003-.196-.5v2.503h-.489V4.113h.685l.782 2.403.783-2.403h.684v3.104zM144.47 3.806h1.956l5.673 15.018h-1.956l-1.565-4.205h-6.26l-1.565 4.205h-1.956l5.673-15.018zm3.521 9.111l-2.543-7.009-2.543 7.009h5.086zM153.958 7.916h1.761v1.602c.391-.6.978-1.102 1.565-1.402.586-.3 1.271-.5 2.054-.5.782 0 1.369.1 1.956.4.587.3 1.076.7 1.369 1.201.294.501.685 1.102.881 1.803.195.7.293 1.502.293 2.302 0 .902-.098 1.703-.293 2.403-.196.701-.489 1.302-.979 1.803-.391.5-.88.9-1.467 1.201-.587.3-1.271.4-1.956.4-.587 0-1.174-.1-1.761-.4-.586-.3-1.076-.7-1.565-1.302v5.407h-1.76l-.098-14.918zm1.761 5.807c0 .7.097 1.301.195 1.802.196.5.392.901.685 1.202.293.3.587.6.978.7.391.1.783.2 1.272.2.391 0 .88-.1 1.173-.2.392-.2.685-.4.978-.7.294-.3.49-.801.685-1.302.196-.5.196-1.202.196-2.002 0-.801-.098-1.502-.294-2.003-.195-.5-.391-1.001-.684-1.302-.294-.3-.587-.6-.978-.7-.392-.1-.685-.2-1.076-.2-.489 0-.881.1-1.272.2-.391.2-.782.4-1.076.7-.293.3-.489.701-.685 1.202-.195.5-.293 1.001-.293 1.702v.7h.196zM166.282 7.916h1.761v1.602c.391-.6.978-1.102 1.565-1.402a4.46 4.46 0 012.054-.5c.782 0 1.369.1 1.956.4.587.3 1.076.7 1.369 1.201.294.501.685 1.102.881 1.803.195.7.293 1.502.293 2.302 0 .902-.098 1.703-.293 2.403-.196.701-.489 1.302-.978 1.803-.392.5-.881.9-1.468 1.201-.586.3-1.271.4-1.956.4-.587 0-1.173-.1-1.76-.4-.587-.2-1.076-.7-1.565-1.302v5.407h-1.761l-.098-14.918zm1.761 5.807c0 .7.098 1.301.195 1.802.196.5.392.901.685 1.202.294.3.587.6.978.7.392.1.783.2 1.272.2.391 0 .88-.1 1.174-.2.391-.2.684-.4.978-.7.293-.3.489-.801.684-1.302.196-.5.196-1.202.196-2.002 0-.801-.098-1.502-.293-2.003-.196-.5-.392-1.001-.685-1.302-.294-.3-.587-.6-.978-.7-.391-.1-.685-.2-1.076-.2-.489 0-.88.1-1.272.2-.391.2-.782.4-1.076.7-.293.3-.489.701-.684 1.202-.196.5-.294 1.001-.294 1.702v.7h.196zM176.748 3.805h2.152l3.032 12.315 3.228-12.315h2.054l3.13 12.315 3.032-12.315h2.054l-4.108 15.019h-1.956l-3.228-12.516-3.228 12.516h-1.956l-4.206-15.019zM201.104 19.13c-.783 0-1.565-.1-2.152-.401-.587-.3-1.174-.6-1.565-1.101-.391-.5-.783-1.102-.978-1.803-.196-.7-.391-1.501-.391-2.402 0-.902.097-1.703.391-2.403.293-.701.587-1.302 1.076-1.803.489-.5.978-.9 1.663-1.201.684-.3 1.369-.4 2.151-.4.783 0 1.468.1 2.152.4.587.3 1.174.6 1.565 1.101.489.5.783 1.102.978 1.802.196.701.392 1.502.392 2.403 0 .902-.098 1.703-.392 2.403-.293.701-.586 1.302-.978 1.803-.489.5-.978.9-1.663 1.201-.782.3-1.467.4-2.249.4zm0-1.502c.587 0 1.076-.1 1.467-.3.391-.2.782-.501.978-.902.294-.4.489-.8.587-1.401.098-.501.196-1.102.196-1.703 0-.6-.098-1.201-.196-1.702-.098-.5-.293-1-.587-1.301-.293-.4-.587-.701-.978-.901-.391-.2-.88-.3-1.467-.3-.587 0-1.076.1-1.467.3-.392.2-.783.5-.978.9-.196.401-.49.802-.587 1.302-.098.501-.196 1.102-.196 1.702 0 .601.098 1.202.196 1.703.097.5.293 1 .587 1.301.293.3.586.701.978.901.391.3.88.4 1.467.4zM208.635 7.913h1.76v1.702c.392-.6.881-1.1 1.37-1.401.489-.3 1.076-.5 1.663-.5.391 0 .684 0 .978.1l-.196 1.701c-.098 0-.293-.1-.391-.1h-.489c-.294 0-.685.1-.978.2-.392.1-.685.3-.979.601-.293.3-.489.6-.684.901-.196.4-.294.801-.294 1.202v6.408h-1.76V7.913zM216.265 3.805h1.76v8.711l4.989-4.606h2.152l-3.815 3.605 4.206 7.209h-2.054l-3.522-6.208-1.956 1.802v4.306h-1.76V3.804zM228.197 15.623c.098.8.391 1.301.978 1.602.489.3 1.174.5 2.054.5.88 0 1.565-.2 1.956-.5.392-.3.587-.701.587-1.202 0-.2 0-.4-.098-.6 0-.2-.097-.4-.293-.501-.098-.1-.293-.3-.587-.4-.293-.1-.587-.2-.978-.3l-1.369-.201c-.587-.1-1.174-.2-1.565-.4-.489-.2-.881-.401-1.174-.601-.294-.2-.587-.501-.685-.902-.195-.4-.195-.8-.195-1.301 0-.5.097-1.001.293-1.302.196-.4.489-.7.88-1 .392-.301.783-.502 1.37-.602.489-.1 1.076-.2 1.663-.2.782 0 1.369.1 1.956.2.489.2.978.4 1.271.601.294.3.587.6.783.901.195.3.293.701.391 1.202l-1.663.3c-.098-.3-.195-.6-.293-.8-.098-.201-.294-.401-.489-.602-.196-.1-.489-.3-.783-.3-.293-.1-.684-.1-1.076-.1-.489 0-.88 0-1.271.1-.294.1-.587.2-.783.4-.195.2-.293.3-.391.501-.098.2-.098.4-.098.6 0 .201 0 .401.098.602.098.2.196.3.293.5l.587.3c.294.1.587.2.978.3l1.565.301c1.272.2 2.152.601 2.641 1.102.587.5.783 1.301.783 2.302 0 .501-.098.901-.294 1.302-.195.4-.489.7-.782 1.001-.391.3-.783.5-1.369.701-.587.2-1.174.2-1.859.2s-1.271-.1-1.76-.2c-.587-.1-1.076-.3-1.468-.6-.391-.301-.782-.601-.978-1.102-.293-.4-.391-1.001-.489-1.602h1.663v-.2zM236.12 7.218h-.489V4.615h-.978v-.5h2.446v.5h-.979v2.603zm4.206 0h-.489V4.716l-.097.5-.587 2.002h-.489l-.587-2.002-.196-.5v2.502h-.489V4.114h.685l.782 2.403.783-2.403h.684v3.104z"/><path d="M86.86 15.221l-.783 1.302c-.782 1.201-2.25 2.903-6.358 2.903-4.303 0-7.238-2.703-7.238-7.61 0-3.603 1.761-8.109 7.532-8.109.88 0 3.423-.1 5.282 2.003 1.858 2.102 2.054 5.006 2.054 6.708H76.883c0 1.902.88 3.704 3.228 3.704 2.347 0 3.032-1.602 3.521-2.603l3.228 1.702zm-4.01-5.507c-.098-.6-.196-1.501-.783-2.102-.49-.5-1.37-.801-2.054-.801-1.076 0-1.76.5-2.152 1.001-.587.7-.685 1.302-.88 2.003h5.869v-.1z"/><path d="M101.531 19.131l-5.282-7.91 4.402-7.108H95.76l-2.054 3.404-2.347-3.404h-4.891l4.793 7.109-4.89 7.91h4.89l2.543-4.206 2.836 4.205h4.891zM21.522 5.51c.39-.6 1.76-1.702 3.814-1.702 3.62 0 6.065 2.804 6.065 7.81 0 3.103-1.076 7.91-6.26 7.91-1.859 0-3.326-1.102-3.717-1.703v6.208H17.12V4.108h4.304l.098 1.402zm2.934 1.702c-.782 0-1.565.3-2.25 1.102-.587.8-.88 2.002-.88 3.304 0 1.802.49 2.803 1.076 3.404.489.6 1.271.9 1.956.9 2.054 0 3.032-2.302 3.032-4.405 0-1.802-.489-3.804-2.25-4.205-.293-.1-.488-.1-.684-.1zM262.624 15.24a5.396 5.396 0 01-.432 1.616c-.224.49-.528.917-.912 1.28a4.036 4.036 0 01-1.408.848c-.544.203-1.179.304-1.904.304-.789 0-1.499-.133-2.128-.4a4.26 4.26 0 01-1.6-1.168c-.437-.512-.779-1.136-1.024-1.872-.235-.747-.352-1.595-.352-2.544 0-.96.128-1.813.384-2.56.256-.747.613-1.376 1.072-1.888a4.585 4.585 0 011.616-1.168 5.154 5.154 0 012.032-.4c.704 0 1.312.09 1.824.272.512.181.944.437 1.296.768.363.33.651.725.864 1.184.224.459.395.965.512 1.52l-1.44.24a5.307 5.307 0 00-.384-1.12 2.646 2.646 0 00-.592-.864 2.227 2.227 0 00-.864-.528c-.331-.128-.736-.192-1.216-.192-.565 0-1.072.117-1.52.352a3.209 3.209 0 00-1.12.96c-.299.405-.528.901-.688 1.488a7.167 7.167 0 00-.24 1.92c0 .704.08 1.35.24 1.936.16.576.389 1.072.688 1.488.309.416.683.736 1.12.96.448.224.96.336 1.536.336.523 0 .965-.064 1.328-.192.373-.139.677-.33.912-.576.245-.245.437-.539.576-.88.139-.341.24-.715.304-1.12h1.52zm1.999-7.664h7.392v1.296h-5.92v3.584h5.6v1.312h-5.6v3.936h6.224l-.24 1.296h-7.456V7.576zm12.839 10.272c.405-.363.843-.747 1.312-1.152.469-.405.944-.821 1.424-1.248.512-.448.96-.853 1.344-1.216a9.31 9.31 0 00.96-1.072c.256-.341.448-.688.576-1.04a3.3 3.3 0 00.192-1.136c0-.672-.181-1.184-.544-1.536-.363-.363-.869-.544-1.52-.544-.395 0-.731.043-1.008.128a1.874 1.874 0 00-.704.384c-.192.16-.352.363-.48.608a5.723 5.723 0 00-.32.864l-1.328-.208c.096-.384.229-.757.4-1.12a3.265 3.265 0 011.824-1.648c.448-.181.997-.272 1.648-.272.565 0 1.067.08 1.504.24.437.16.8.384 1.088.672.299.277.523.613.672 1.008.16.395.24.832.24 1.312 0 .48-.069.928-.208 1.344a4.57 4.57 0 01-.608 1.232 8.843 8.843 0 01-1.056 1.248c-.427.427-.933.89-1.52 1.392-.309.267-.629.539-.96.816-.32.267-.635.539-.944.816h5.408l-.208 1.28h-7.184v-1.152zm9.469 0c.405-.363.842-.747 1.312-1.152.469-.405.944-.821 1.424-1.248.512-.448.96-.853 1.344-1.216a9.31 9.31 0 00.96-1.072c.256-.341.448-.688.576-1.04a3.3 3.3 0 00.192-1.136c0-.672-.182-1.184-.544-1.536-.363-.363-.87-.544-1.52-.544-.395 0-.731.043-1.008.128a1.866 1.866 0 00-.704.384c-.192.16-.352.363-.48.608a5.616 5.616 0 00-.32.864l-1.328-.208c.096-.384.229-.757.4-1.12.17-.363.405-.683.704-.96a3.256 3.256 0 011.12-.688c.448-.181.997-.272 1.648-.272.565 0 1.066.08 1.504.24.437.16.8.384 1.088.672.298.277.522.613.672 1.008.16.395.24.832.24 1.312 0 .48-.07.928-.208 1.344a4.57 4.57 0 01-.608 1.232 8.98 8.98 0 01-1.056 1.248c-.427.427-.934.89-1.52 1.392-.31.267-.63.539-.96.816-.32.267-.635.539-.944.816h5.408l-.208 1.28h-7.184v-1.152zm9.42-.72h1.6V19h-1.6v-1.872zM301.192 15.944c.085.715.309 1.248.672 1.6.363.341.971.512 1.824.512.757 0 1.333-.181 1.728-.544.395-.373.592-.912.592-1.616 0-.725-.203-1.243-.608-1.552-.395-.31-.939-.464-1.632-.464h-1.264v-1.264h1.312c.608 0 1.083-.165 1.424-.496.352-.33.528-.816.528-1.456 0-.576-.181-1.013-.544-1.312-.352-.31-.88-.464-1.584-.464-.725 0-1.269.15-1.632.448-.352.299-.619.768-.8 1.408l-1.312-.208c.075-.373.197-.73.368-1.072a3.1 3.1 0 01.688-.928 3.209 3.209 0 011.12-.656c.448-.16.987-.24 1.616-.24.597 0 1.115.075 1.552.224.437.15.8.357 1.088.624.288.256.501.56.64.912.149.341.224.71.224 1.104 0 .63-.128 1.152-.384 1.568-.256.416-.656.763-1.2 1.04.64.256 1.104.613 1.392 1.072.299.459.448 1.008.448 1.648 0 .501-.075.965-.224 1.392a2.91 2.91 0 01-.688 1.088c-.309.31-.699.55-1.168.72-.469.17-1.019.256-1.648.256-.757 0-1.387-.101-1.888-.304-.491-.213-.885-.48-1.184-.8a2.841 2.841 0 01-.64-1.072 5.08 5.08 0 01-.208-1.168h1.392z"/></g><defs><clipPath id="clip0_1931_10333"><path fill="#fff" d="M0 0h307.448v24.033H0z"/></clipPath></defs></svg>